<svg width="20" height="20" viewBox="0 0 20 20" fill="none" xmlns="http://www.w3.org/2000/svg">
<path d="M16.4358 7.21634C16.3379 7.2951 14.6084 8.30496 14.6084 10.5505C14.6084 13.1477 16.8091 14.0666 16.875 14.0893C16.8649 14.1453 16.5253 15.3477 15.7146 16.5728C14.9917 17.6509 14.2368 18.7273 13.0883 18.7273C11.9398 18.7273 11.6442 18.0359 10.3183 18.0359C9.0263 18.0359 8.5669 18.75 7.51636 18.75C6.4658 18.75 5.73278 17.7524 4.88998 16.5272C3.91375 15.0886 3.125 12.8536 3.125 10.7325C3.125 7.33011 5.25987 5.52568 7.36097 5.52568C8.47739 5.52568 9.40802 6.28526 10.1089 6.28526C10.776 6.28526 11.8165 5.48017 13.0866 5.48017C13.568 5.48017 15.2975 5.52568 16.4358 7.21634ZM12.4837 4.03978C13.0089 3.39397 13.3805 2.49787 13.3805 1.60179C13.3805 1.47752 13.3704 1.35151 13.3484 1.25C12.4938 1.28325 11.477 1.83981 10.8639 2.57663C10.3825 3.14369 9.93329 4.03978 9.93329 4.94812C9.93329 5.08464 9.95524 5.22114 9.96538 5.2649C10.0194 5.2754 10.1072 5.28765 10.1951 5.28765C10.9619 5.28765 11.9263 4.7556 12.4837 4.03978Z" fill="white"/>
</svg>
