<svg width="48" height="48" viewBox="0 0 48 48" fill="none" xmlns="http://www.w3.org/2000/svg">
<path d="M22.7454 18.9485C23.1379 18.3699 23.5677 18.2963 23.9163 18.2963C24.2648 18.2963 24.8456 18.3699 25.2383 18.9485C28.3324 23.1984 33.4398 31.6645 37.2073 37.9095C39.6642 41.9822 41.5513 45.1101 41.9384 45.5082C43.3918 47.0026 45.385 46.0713 46.5433 44.3762C47.6835 42.7075 48 41.5357 48 40.2856C48 39.4342 31.4804 8.71066 29.8167 6.15331C28.2167 3.69357 27.6956 3.07227 24.9573 3.07227H22.9081C20.1779 3.07227 19.7834 3.69357 18.1833 6.15331C16.5198 8.71066 0 39.4342 0 40.2856C0 41.5357 0.316553 42.7075 1.45684 44.3762C2.61507 46.0713 4.60828 47.0026 6.0616 45.5082C6.4488 45.1101 8.33587 41.9822 10.7928 37.9095C14.5603 31.6645 19.6513 23.1984 22.7454 18.9485Z" fill="white"/>
</svg>
