<svg width="602" height="602" viewBox="0 0 602 602" fill="none" xmlns="http://www.w3.org/2000/svg">
<path d="M480.96 301C480.96 317.572 474.238 332.572 463.357 343.42C452.475 354.28 437.445 361 420.84 361C404.235 361 389.205 367.708 378.335 378.568C367.453 389.428 360.72 404.428 360.72 421C360.72 437.572 353.998 452.572 343.117 463.42C332.235 474.28 317.205 481 300.6 481C283.995 481 268.965 474.28 258.095 463.42C247.213 452.572 240.48 437.572 240.48 421C240.48 404.428 247.213 389.428 258.095 378.568C268.965 367.708 283.995 361 300.6 361C317.205 361 332.235 354.28 343.117 343.42C353.998 332.572 360.72 317.572 360.72 301C360.72 267.856 333.81 241 300.6 241C283.995 241 268.965 234.28 258.095 223.42C247.213 212.572 240.48 197.572 240.48 181C240.48 164.428 247.213 149.428 258.095 138.568C268.965 127.708 283.995 121 300.6 121C333.81 121 360.72 147.856 360.72 181C360.72 197.572 367.453 212.572 378.335 223.42C389.205 234.28 404.235 241 420.84 241C454.05 241 480.96 267.856 480.96 301Z" fill="#F44250"/>
<path d="M240.48 301C240.48 267.862 213.563 241 180.36 241C147.157 241 120.24 267.862 120.24 301C120.24 334.137 147.157 361 180.36 361C213.563 361 240.48 334.137 240.48 301Z" fill="white"/>
<path d="M120.24 421C120.24 387.863 93.3234 361 60.12 361C26.9166 361 0 387.863 0 421C0 454.138 26.9166 481 60.12 481C93.3234 481 120.24 454.138 120.24 421Z" fill="white"/>
<path d="M601.2 421C601.2 387.863 574.283 361 541.08 361C507.877 361 480.96 387.863 480.96 421C480.96 454.138 507.877 481 541.08 481C574.283 481 601.2 454.138 601.2 421Z" fill="white"/>
</svg>
