<svg width="20" height="20" viewBox="0 0 20 20" fill="none" xmlns="http://www.w3.org/2000/svg">
<path fill-rule="evenodd" clip-rule="evenodd" d="M17.9938 15.4236C18.1739 17.7344 18.1739 18.8176 18.1739 20H12.8234C12.8234 19.7425 12.828 19.5068 12.8326 19.268C12.8471 18.5252 12.8622 17.7508 12.7418 16.1868C12.5827 13.8971 11.5959 13.3883 9.7816 13.3883H8.17417H1.36646V9.22236H10.0362C12.328 9.22236 13.4739 8.52571 13.4739 6.68124C13.4739 5.05938 12.328 4.07652 10.0362 4.07652H1.36646V0H10.9911C16.1795 0 18.7578 2.4487 18.7578 6.36025C18.7578 9.28596 16.9435 11.194 14.4925 11.512C16.5615 11.9255 17.7711 13.1021 17.9938 15.4236Z" fill="white"/>
<path d="M1.36646 20V16.8944H7.0238C7.96877 16.8944 8.17395 17.5948 8.17395 18.0124V20H1.36646Z" fill="white"/>
</svg>
