<svg xmlns="http://www.w3.org/2000/svg" xmlns:xlink="http://www.w3.org/1999/xlink" viewBox="0 0 633 633"><defs><linearGradient id="linearGradient-1" x1="50%" x2="50%" y1="0%" y2="71.65%"><stop offset="0%" stop-color="#6BDAFF"/><stop offset="31.922%" stop-color="#F9FFB5"/><stop offset="70.627%" stop-color="#FFA770"/><stop offset="100%" stop-color="#FF7373"/></linearGradient><linearGradient id="linearGradient-4" x1="43.996%" x2="53.441%" y1="8.54%" y2="93.872%"><stop offset="0%" stop-color="#673800"/><stop offset="100%" stop-color="#B65E00"/></linearGradient><linearGradient id="linearGradient-5" x1="50%" x2="50%" y1="0%" y2="100%"><stop offset="0%" stop-color="#2F8A00"/><stop offset="100%" stop-color="#90FF57"/></linearGradient><linearGradient id="linearGradient-6" x1="50%" x2="50%" y1="0%" y2="100%"><stop offset="0%" stop-color="#2F8A00"/><stop offset="100%" stop-color="#90FF57"/></linearGradient><linearGradient id="linearGradient-7" x1="50%" x2="50%" y1="0%" y2="100%"><stop offset="0%" stop-color="#2F8A00"/><stop offset="100%" stop-color="#90FF57"/></linearGradient><linearGradient id="linearGradient-8" x1="50%" x2="50%" y1="0%" y2="100%"><stop offset="0%" stop-color="#2F8A00"/><stop offset="100%" stop-color="#90FF57"/></linearGradient><linearGradient id="linearGradient-9" x1="50%" x2="50%" y1="0%" y2="100%"><stop offset="0%" stop-color="#2F8A00"/><stop offset="100%" stop-color="#90FF57"/></linearGradient><linearGradient id="linearGradient-10" x1="50%" x2="50%" y1="0%" y2="100%"><stop offset="0%" stop-color="#2F8A00"/><stop offset="100%" stop-color="#90FF57"/></linearGradient><linearGradient id="linearGradient-11" x1="92.9%" x2="8.641%" y1="45.768%" y2="54.892%"><stop offset="0%" stop-color="#EE2700"/><stop offset="100%" stop-color="#FF008E"/></linearGradient><linearGradient id="linearGradient-12" x1="61.109%" x2="43.717%" y1="3.633%" y2="43.072%"><stop offset="0%" stop-color="#FFF400"/><stop offset="100%" stop-color="#3C8700"/></linearGradient><linearGradient id="linearGradient-13" x1="50%" x2="50%" y1="0%" y2="100%"><stop offset="0%" stop-color="#FFDF00"/><stop offset="100%" stop-color="#FF9D00"/></linearGradient><linearGradient id="linearGradient-14" x1="127.279%" x2="0%" y1="49.778%" y2="50.222%"><stop offset="0%" stop-color="#FFA400"/><stop offset="100%" stop-color="#FF5E00"/></linearGradient><linearGradient id="linearGradient-15" x1="127.279%" x2="0%" y1="47.531%" y2="52.469%"><stop offset="0%" stop-color="#FFA400"/><stop offset="100%" stop-color="#FF5E00"/></linearGradient><linearGradient id="linearGradient-16" x1="127.279%" x2="0%" y1="46.195%" y2="53.805%"><stop offset="0%" stop-color="#FFA400"/><stop offset="100%" stop-color="#FF5E00"/></linearGradient><linearGradient id="linearGradient-17" x1="127.279%" x2="0%" y1="35.33%" y2="64.67%"><stop offset="0%" stop-color="#FFA400"/><stop offset="100%" stop-color="#FF5E00"/></linearGradient><linearGradient id="linearGradient-18" x1="127.279%" x2="0%" y1="4.875%" y2="95.125%"><stop offset="0%" stop-color="#FFA400"/><stop offset="100%" stop-color="#FF5E00"/></linearGradient><linearGradient id="linearGradient-19" x1="78.334%" x2="31.668%" y1="0%" y2="100%"><stop offset="0%" stop-color="#FFA400"/><stop offset="100%" stop-color="#FF5E00"/></linearGradient><linearGradient id="linearGradient-20" x1="57.913%" x2="44.88%" y1="0%" y2="100%"><stop offset="0%" stop-color="#FFA400"/><stop offset="100%" stop-color="#FF5E00"/></linearGradient><linearGradient id="linearGradient-21" x1="50.495%" x2="49.68%" y1="0%" y2="100%"><stop offset="0%" stop-color="#FFA400"/><stop offset="100%" stop-color="#FF5E00"/></linearGradient><circle id="path-2" cx="308.5" cy="308.5" r="308.5"/><circle id="path-22" cx="307.5" cy="308.5" r="316.5"/></defs><g id="Logo" fill="none" fill-rule="evenodd" stroke="none" stroke-width="1"><g id="Group-3-Copy" transform="translate(9 8)"><mask id="mask-3" fill="#fff"><use xlink:href="#path-2"/></mask><use xlink:href="#path-2" id="Mask" fill="url(#linearGradient-1)"/><ellipse id="Oval-Copy-2" cx="81.5" cy="602.5" fill="#015064" stroke="#00CFE2" stroke-width="25" mask="url(#mask-3)" rx="214.5" ry="185.968"/><ellipse id="Oval-Copy-3" cx="535.5" cy="602.5" fill="#015064" stroke="#00CFE2" stroke-width="25" mask="url(#mask-3)" rx="214.5" ry="185.968"/><ellipse id="Oval-Copy-5" cx="81.5" cy="640.5" fill="#015064" stroke="#00A8B8" stroke-width="25" mask="url(#mask-3)" rx="214.5" ry="185.968"/><ellipse id="Oval-Copy-4" cx="535.5" cy="640.5" fill="#015064" stroke="#00A8B8" stroke-width="25" mask="url(#mask-3)" rx="214.5" ry="185.968"/><ellipse id="Oval-Copy-7" cx="81.5" cy="676.5" fill="#015064" stroke="#007782" stroke-width="25" mask="url(#mask-3)" rx="214.5" ry="185.968"/><ellipse id="Oval-Copy-6" cx="535.5" cy="676.5" fill="#015064" stroke="#007782" stroke-width="25" mask="url(#mask-3)" rx="214.5" ry="185.968"/><g id="Group" mask="url(#mask-3)"><g id="Group-20" transform="scale(-1 1) rotate(8 -672.133 -2710.538)"><g id="Group-12" transform="rotate(-9 271.516 -159.035)"><path id="Path-7" fill="url(#linearGradient-4)" stroke="#6E3A00" stroke-width="6.088" d="M98.318 88.007c7.691 37.104 16.643 72.442 26.856 106.013 10.212 33.571 25.57 68.934 46.07 106.088l-51.903 11.67c-10.057-60.01-17.232-99.172-21.525-117.487-4.293-18.315-10.989-51.434-20.089-99.357l20.591-6.927" transform="rotate(26 124.486 199.893)"/><g id="Group-5" stroke="#2F8A00" transform="matrix(-1 0 0 1 259 0)"><path id="Path-3" fill="url(#linearGradient-5)" stroke-width="9.343" d="M108.544 66.538s-13.54-21.305-37.417-27.785c-15.917-4.321-33.933.31-54.048 13.892C33.464 65.975 47.24 73.52 58.405 75.28c16.749 2.64 50.14-8.74 50.14-8.74Z"/><path id="Path-2" fill="url(#linearGradient-6)" stroke-width="9.343" d="M108.544 67.138s-47.187-5.997-81.077 19.936C4.873 104.362-3.782 137.794 1.502 187.369c28.42-29.22 48.758-50.836 61.016-64.846 18.387-21.016 46.026-55.385 46.026-55.385Z"/><path id="Path-4" fill="url(#linearGradient-7)" stroke-width="9.343" d="M108.544 66.538c-1.96-21.705 3.98-38.018 17.82-48.94C140.203 6.674 154.85.808 170.303 0c-4.865 21.527-12.373 36.314-22.524 44.361-10.151 8.048-23.23 15.44-39.236 22.177Z"/><path id="Path-5" fill="url(#linearGradient-8)" stroke-width="9.343" d="M108.544 67.138c29.838-31.486 61.061-42.776 93.669-33.869C234.82 42.176 253.749 60.785 259 89.096c-34.898-3.657-59.974-6.343-75.228-8.058-15.254-1.716-40.33-6.349-75.228-13.9Z"/><path id="Path-6" fill="url(#linearGradient-9)" stroke-width="9.343" d="M108.544 67.138c34.868-9.381 64.503-3.658 88.905 17.17 24.402 20.829 39.656 46.686 45.762 77.571-39.626-7.574-68.4-20.115-86.322-37.624a395.051 395.051 0 0 1-48.345-57.117Z"/><path id="Path" fill="url(#linearGradient-10)" stroke-width="9.343" d="M108.544 67.138C76.206 82.6 57.608 105.366 52.75 135.436c-4.858 30.07-.292 62.89 13.698 98.462 24.873-41.418 38.905-71.368 42.096-89.849 3.191-18.48 3.191-44.118 0-76.91Z"/><path id="Path-17" stroke-linecap="round" stroke-width="5.91" d="M109.926 64.875c-13.465 22.23-22.554 42.422-27.267 60.578-4.714 18.156-7.595 33.28-8.645 45.374"/><path id="Path-18" stroke-linecap="round" stroke-width="5.91" d="M108.516 68.307C84.582 71.29 65.913 79.521 52.51 93.002c-13.405 13.481-23.023 26.542-28.856 39.184"/><path id="Path-19" stroke-linecap="round" stroke-width="5.91" d="M117.578 58.562c28.889-8.228 50.787-11.061 65.693-8.5 14.906 2.563 26.937 7.19 36.09 13.882"/><path id="Path-20" stroke-linecap="round" stroke-width="5.91" d="M109.937 64.015c20.447 8.751 38.68 18.38 54.699 28.887 16.019 10.508 28.076 20.504 36.172 29.99"/></g></g><g id="Group-2" transform="rotate(-17 999.879 149.433)"><path id="Path-9" stroke="#830305" stroke-linecap="round" stroke-linejoin="bevel" stroke-width="6.937" d="M10.313 37.106 30.3 59.059"/><path id="Path-10" stroke="#830305" stroke-linecap="round" stroke-linejoin="bevel" stroke-width="6.937" d="m94.192 27.468 17.596 31.539"/><path id="Path-10-Copy" stroke="#830305" stroke-linecap="round" stroke-linejoin="bevel" stroke-width="6.937" d="m112.555 8.286-61.883 50.76"/><g id="Group-6" transform="translate(4.269)"><path id="Path-8" fill="url(#linearGradient-11)" d="M67.585 27.463H5.68C1.893 28.148 0 30.38 0 34.16c0 3.78 1.893 6.211 5.68 7.293h67.17l41.751-30.356c2.488-2.646 2.794-5.315.92-8.006s-4.6-3.626-8.177-2.803l-39.76 27.174Z"/><path id="Path-12" fill="#D8D8D8" stroke="#FFF" stroke-linecap="round" stroke-linejoin="bevel" stroke-width="4.414" d="m13.521 31.56.174-4.111"/><path id="Path-13" fill="#D8D8D8" stroke="#FFF" stroke-linecap="round" stroke-linejoin="bevel" stroke-width="4.414" d="m34.349 32.067.174-4.111"/><path id="Path-14" fill="#D8D8D8" stroke="#FFF" stroke-linecap="round" stroke-linejoin="bevel" stroke-width="4.414" d="m55.283 31.993.122-3.874"/><path id="Path-15" fill="#D8D8D8" stroke="#FFF" stroke-linecap="round" stroke-linejoin="bevel" stroke-width="4.414" d="m81.059 22.385-2.138-2.867"/><path id="Path-16" fill="#D8D8D8" stroke="#FFF" stroke-linecap="round" stroke-linejoin="bevel" stroke-width="4.414" d="m96.136 12.304-2.138-2.867"/></g></g></g></g><ellipse id="Oval-Copy" cx="308.5" cy="720.5" fill="url(#linearGradient-12)" mask="url(#mask-3)" rx="266" ry="316.5"/><ellipse id="Oval-Copy-8" cx="308.5" cy="720.5" stroke="#6DA300" stroke-opacity=".502" stroke-width="26" mask="url(#mask-3)" rx="253" ry="303.5"/><g id="Group-4" mask="url(#mask-3)"><g transform="translate(389 -32)"><circle id="Oval" cx="168.5" cy="113.5" r="113.5" fill="url(#linearGradient-13)" fill-rule="evenodd" stroke="none"/><circle id="Oval-Copy-9" cx="168.5" cy="113.5" r="106" fill="none" stroke="#FFC900" stroke-opacity=".529" stroke-width="15"/><path id="Line" fill="none" stroke="url(#linearGradient-14)" stroke-linecap="round" stroke-linejoin="bevel" stroke-width="12" d="M30 113H0"/><path id="Line-Copy-4" fill="none" stroke="url(#linearGradient-15)" stroke-linecap="round" stroke-linejoin="bevel" stroke-width="12" d="M33.5 79.5 7 74"/><path id="Line-Copy" fill="none" stroke="url(#linearGradient-16)" stroke-linecap="round" stroke-linejoin="bevel" stroke-width="12" d="m34 146-29 8"/><path id="Line-Copy-2" fill="none" stroke="url(#linearGradient-17)" stroke-linecap="round" stroke-linejoin="bevel" stroke-width="12" d="m45 177-24 13"/><path id="Line-Copy-3" fill="none" stroke="url(#linearGradient-18)" stroke-linecap="round" stroke-linejoin="bevel" stroke-width="12" d="m67 204-20 19"/><path id="Line-Copy-6" fill="none" stroke="url(#linearGradient-19)" stroke-linecap="round" stroke-linejoin="bevel" stroke-width="12" d="m94.373 227-13.834 22.847"/><path id="Line-Copy-7" fill="none" stroke="url(#linearGradient-20)" stroke-linecap="round" stroke-linejoin="bevel" stroke-width="12" d="M127.5 243.5 120 268"/><path id="Line-Copy-5" fill="none" stroke="url(#linearGradient-21)" stroke-linecap="round" stroke-linejoin="bevel" stroke-width="12" d="m167.5 252.5.5 24.5"/></g></g><mask id="mask-23" fill="#fff"><use xlink:href="#path-22"/></mask><circle cx="307.5" cy="308.5" r="304" stroke="#000" stroke-width="25"/></g></g></svg>
